<svg width="738" height="23" viewBox="0 0 738 23" fill="none" xmlns="http://www.w3.org/2000/svg">
<path d="M0 11.52C0 9.30133 0.48 7.328 1.44 5.6C2.4 3.85067 3.73333 2.496 5.44 1.536C7.168 0.554666 9.12 0.0639992 11.296 0.0639992C13.9627 0.0639992 16.2453 0.767999 18.144 2.176C20.0427 3.584 21.312 5.504 21.952 7.936H15.936C15.488 6.99733 14.848 6.28267 14.016 5.792C13.2053 5.30133 12.2773 5.056 11.232 5.056C9.54667 5.056 8.18133 5.64267 7.136 6.816C6.09067 7.98933 5.568 9.55733 5.568 11.52C5.568 13.4827 6.09067 15.0507 7.136 16.224C8.18133 17.3973 9.54667 17.984 11.232 17.984C12.2773 17.984 13.2053 17.7387 14.016 17.248C14.848 16.7573 15.488 16.0427 15.936 15.104H21.952C21.312 17.536 20.0427 19.456 18.144 20.864C16.2453 22.2507 13.9627 22.944 11.296 22.944C9.12 22.944 7.168 22.464 5.44 21.504C3.73333 20.5227 2.4 19.168 1.44 17.44C0.48 15.712 0 13.7387 0 11.52Z" fill="black"/>
<path d="M35.927 23.008C33.815 23.008 31.8737 22.5173 30.103 21.536C28.3537 20.5547 26.9563 19.1893 25.911 17.44C24.887 15.6693 24.375 13.6853 24.375 11.488C24.375 9.29067 24.887 7.31733 25.911 5.568C26.9563 3.81867 28.3537 2.45333 30.103 1.472C31.8737 0.490667 33.815 0 35.927 0C38.039 0 39.9697 0.490667 41.719 1.472C43.4897 2.45333 44.8763 3.81867 45.879 5.568C46.903 7.31733 47.415 9.29067 47.415 11.488C47.415 13.6853 46.903 15.6693 45.879 17.44C44.855 19.1893 43.4683 20.5547 41.719 21.536C39.9697 22.5173 38.039 23.008 35.927 23.008ZM35.927 18.016C37.719 18.016 39.1483 17.4187 40.215 16.224C41.303 15.0293 41.847 13.4507 41.847 11.488C41.847 9.504 41.303 7.92533 40.215 6.752C39.1483 5.55733 37.719 4.96 35.927 4.96C34.1137 4.96 32.663 5.54667 31.575 6.72C30.5083 7.89333 29.975 9.48267 29.975 11.488C29.975 13.472 30.5083 15.0613 31.575 16.256C32.663 17.4293 34.1137 18.016 35.927 18.016Z" fill="black"/>
<path d="M81.3712 0.32L75.5153 22.784H68.8913L65.3073 8L61.5952 22.784H54.9712L49.2752 0.32H55.1312L58.3633 16.672L62.3633 0.32H68.3792L72.2193 16.672L75.4833 0.32H81.3712Z" fill="black"/>
<path d="M94.7395 23.008C92.6275 23.008 90.6862 22.5173 88.9155 21.536C87.1662 20.5547 85.7688 19.1893 84.7235 17.44C83.6995 15.6693 83.1875 13.6853 83.1875 11.488C83.1875 9.29067 83.6995 7.31733 84.7235 5.568C85.7688 3.81867 87.1662 2.45333 88.9155 1.472C90.6862 0.490667 92.6275 0 94.7395 0C96.8515 0 98.7822 0.490667 100.532 1.472C102.302 2.45333 103.689 3.81867 104.691 5.568C105.715 7.31733 106.228 9.29067 106.228 11.488C106.228 13.6853 105.715 15.6693 104.691 17.44C103.667 19.1893 102.281 20.5547 100.532 21.536C98.7822 22.5173 96.8515 23.008 94.7395 23.008ZM94.7395 18.016C96.5315 18.016 97.9608 17.4187 99.0275 16.224C100.115 15.0293 100.66 13.4507 100.66 11.488C100.66 9.504 100.115 7.92533 99.0275 6.752C97.9608 5.55733 96.5315 4.96 94.7395 4.96C92.9262 4.96 91.4755 5.54667 90.3875 6.72C89.3208 7.89333 88.7875 9.48267 88.7875 11.488C88.7875 13.472 89.3208 15.0613 90.3875 16.256C91.4755 17.4293 92.9262 18.016 94.7395 18.016Z" fill="black"/>
<path d="M120.728 22.784L116.056 14.304H114.744V22.784H109.272V0.32H118.456C120.226 0.32 121.73 0.629333 122.968 1.248C124.226 1.86667 125.165 2.72 125.784 3.808C126.402 4.87467 126.712 6.06933 126.712 7.392C126.712 8.88533 126.285 10.2187 125.432 11.392C124.6 12.5653 123.362 13.3973 121.72 13.888L126.904 22.784H120.728ZM114.744 10.432H118.136C119.138 10.432 119.885 10.1867 120.376 9.696C120.888 9.20533 121.144 8.512 121.144 7.616C121.144 6.76267 120.888 6.09067 120.376 5.6C119.885 5.10933 119.138 4.864 118.136 4.864H114.744V10.432Z" fill="black"/>
<path d="M143.171 22.784L135.619 12.864V22.784H130.147V0.32H135.619V10.176L143.107 0.32H149.539L140.835 11.328L149.859 22.784H143.171Z" fill="black"/>
<path d="M160.587 23.008C158.945 23.008 157.473 22.7413 156.171 22.208C154.87 21.6747 153.825 20.8853 153.035 19.84C152.267 18.7947 151.862 17.536 151.819 16.064H157.643C157.729 16.896 158.017 17.536 158.507 17.984C158.998 18.4107 159.638 18.624 160.427 18.624C161.238 18.624 161.878 18.4427 162.347 18.08C162.817 17.696 163.051 17.1733 163.051 16.512C163.051 15.9573 162.859 15.4987 162.475 15.136C162.113 14.7733 161.654 14.4747 161.099 14.24C160.566 14.0053 159.798 13.7387 158.795 13.44C157.345 12.992 156.161 12.544 155.243 12.096C154.326 11.648 153.537 10.9867 152.875 10.112C152.214 9.23733 151.883 8.096 151.883 6.688C151.883 4.59733 152.641 2.96533 154.155 1.792C155.67 0.597333 157.643 0 160.075 0C162.55 0 164.545 0.597333 166.059 1.792C167.574 2.96533 168.385 4.608 168.491 6.72H162.571C162.529 5.99467 162.262 5.42933 161.771 5.024C161.281 4.59733 160.651 4.384 159.883 4.384C159.222 4.384 158.689 4.56533 158.283 4.928C157.878 5.26933 157.675 5.77067 157.675 6.432C157.675 7.15733 158.017 7.72267 158.699 8.128C159.382 8.53333 160.449 8.97067 161.899 9.44C163.35 9.93067 164.523 10.4 165.419 10.848C166.337 11.296 167.126 11.9467 167.787 12.8C168.449 13.6533 168.779 14.752 168.779 16.096C168.779 17.376 168.449 18.5387 167.787 19.584C167.147 20.6293 166.209 21.4613 164.971 22.08C163.734 22.6987 162.273 23.008 160.587 23.008Z" fill="black"/>
<path d="M412.28 17.004V16.087C412.537 16.1103 412.749 16.101 412.917 16.059C413.085 16.0123 413.22 15.9097 413.323 15.751C413.43 15.5923 413.524 15.3567 413.603 15.044C413.682 14.7267 413.762 14.3137 413.841 13.805C413.93 13.2543 414.004 12.706 414.065 12.16C414.13 11.614 414.186 11.061 414.233 10.501C414.284 9.93633 414.326 9.35767 414.359 8.765C414.392 8.17233 414.422 7.55867 414.45 6.924H420.813V17.004H419.784V7.911H415.444C415.411 8.39167 415.379 8.884 415.346 9.388C415.318 9.892 415.281 10.4077 415.234 10.935C415.192 11.4623 415.138 12.006 415.073 12.566C415.012 13.1213 414.935 13.6953 414.842 14.288C414.767 14.736 414.679 15.1513 414.576 15.534C414.478 15.9167 414.338 16.2387 414.156 16.5C413.979 16.7613 413.738 16.941 413.435 17.039C413.136 17.137 412.751 17.1253 412.28 17.004ZM426.226 17.214C425.475 17.214 424.833 17.0437 424.301 16.703C423.769 16.3623 423.361 15.891 423.076 15.289C422.791 14.687 422.649 13.9963 422.649 13.217C422.649 12.4237 422.794 11.7283 423.083 11.131C423.372 10.5337 423.783 10.0693 424.315 9.738C424.852 9.402 425.489 9.234 426.226 9.234C426.982 9.234 427.626 9.40433 428.158 9.745C428.695 10.081 429.103 10.55 429.383 11.152C429.668 11.7493 429.81 12.4377 429.81 13.217C429.81 14.0103 429.668 14.708 429.383 15.31C429.098 15.9073 428.688 16.374 428.151 16.71C427.614 17.046 426.973 17.214 426.226 17.214ZM426.226 16.227C427.066 16.227 427.691 15.9493 428.102 15.394C428.513 14.834 428.718 14.1083 428.718 13.217C428.718 12.3023 428.51 11.5743 428.095 11.033C427.684 10.4917 427.061 10.221 426.226 10.221C425.661 10.221 425.195 10.3493 424.826 10.606C424.462 10.858 424.189 11.2103 424.007 11.663C423.83 12.111 423.741 12.629 423.741 13.217C423.741 14.127 423.951 14.8573 424.371 15.408C424.791 15.954 425.409 16.227 426.226 16.227ZM431.647 17.004L431.654 9.444H432.69V13.084L436.064 9.444H437.436L433.894 13.224L437.898 17.004H436.4L432.69 13.364V17.004H431.647ZM441.063 17.214C440.493 17.214 440.015 17.1113 439.628 16.906C439.245 16.7007 438.958 16.4277 438.767 16.087C438.575 15.7463 438.48 15.3753 438.48 14.974C438.48 14.5633 438.561 14.2133 438.725 13.924C438.893 13.63 439.119 13.3897 439.404 13.203C439.693 13.0163 440.027 12.874 440.405 12.776C440.787 12.6827 441.21 12.601 441.672 12.531C442.138 12.4563 442.593 12.3933 443.037 12.342C443.485 12.286 443.877 12.2323 444.213 12.181L443.849 12.405C443.863 11.6583 443.718 11.1053 443.415 10.746C443.111 10.3867 442.584 10.207 441.833 10.207C441.315 10.207 440.876 10.3237 440.517 10.557C440.162 10.7903 439.912 11.159 439.768 11.663L438.767 11.369C438.939 10.6923 439.287 10.1673 439.81 9.794C440.332 9.42067 441.011 9.234 441.847 9.234C442.537 9.234 443.123 9.36467 443.604 9.626C444.089 9.88267 444.432 10.256 444.633 10.746C444.726 10.9653 444.787 11.2103 444.815 11.481C444.843 11.7517 444.857 12.027 444.857 12.307V17.004H443.94V15.107L444.206 15.219C443.949 15.8677 443.55 16.3623 443.009 16.703C442.467 17.0437 441.819 17.214 441.063 17.214ZM441.182 16.325C441.662 16.325 442.082 16.2387 442.442 16.066C442.801 15.8933 443.09 15.6577 443.31 15.359C443.529 15.0557 443.671 14.715 443.737 14.337C443.793 14.0943 443.823 13.8283 443.828 13.539C443.832 13.245 443.835 13.0257 443.835 12.881L444.227 13.084C443.877 13.1307 443.496 13.1773 443.086 13.224C442.68 13.2707 442.278 13.3243 441.882 13.385C441.49 13.4457 441.135 13.518 440.818 13.602C440.603 13.6627 440.395 13.749 440.195 13.861C439.994 13.9683 439.828 14.113 439.698 14.295C439.572 14.477 439.509 14.7033 439.509 14.974C439.509 15.1933 439.562 15.4057 439.67 15.611C439.782 15.8163 439.959 15.9867 440.202 16.122C440.449 16.2573 440.776 16.325 441.182 16.325ZM453.475 18.313V17.004H446.972V9.444H448.001V16.017H451.956V9.444H452.985V16.052H454.504V18.313H453.475ZM461.925 9.444V17.004H460.924V11.117L456.78 17.004H455.912V9.444H456.913V15.282L461.064 9.444H461.925ZM468.929 17.004V14.155H467.165C466.96 14.155 466.747 14.148 466.528 14.134C466.313 14.1153 466.113 14.0897 465.926 14.057C465.394 13.9543 464.941 13.721 464.568 13.357C464.199 12.9883 464.015 12.4797 464.015 11.831C464.015 11.1963 464.188 10.6877 464.533 10.305C464.878 9.91767 465.296 9.66567 465.786 9.549C466.01 9.49767 466.236 9.46733 466.465 9.458C466.698 9.44867 466.899 9.444 467.067 9.444H469.958L469.965 17.004H468.929ZM463.77 17.004L465.877 13.833H467.018L464.897 17.004H463.77ZM467.109 13.273H468.929V10.326H467.109C466.997 10.326 466.841 10.3307 466.64 10.34C466.439 10.3493 466.25 10.3797 466.073 10.431C465.919 10.4777 465.765 10.5593 465.611 10.676C465.462 10.788 465.336 10.9397 465.233 11.131C465.13 11.3177 465.079 11.5463 465.079 11.817C465.079 12.195 465.182 12.4983 465.387 12.727C465.597 12.951 465.858 13.105 466.171 13.189C466.339 13.2263 466.507 13.2497 466.675 13.259C466.843 13.2683 466.988 13.273 467.109 13.273Z" fill="black"/>
<path d="M496.061 17.214C495.058 17.214 494.211 16.9923 493.52 16.549C492.829 16.101 492.307 15.4827 491.952 14.694C491.597 13.9053 491.42 12.9953 491.42 11.964C491.42 10.9327 491.597 10.0227 491.952 9.234C492.307 8.44533 492.829 7.82933 493.52 7.386C494.211 6.938 495.058 6.714 496.061 6.714C497.232 6.714 498.189 7.015 498.931 7.617C499.673 8.21433 500.182 9.017 500.457 10.025L499.407 10.298C499.192 9.5 498.807 8.86767 498.252 8.401C497.697 7.93433 496.966 7.701 496.061 7.701C495.272 7.701 494.617 7.88067 494.094 8.24C493.571 8.59933 493.177 9.101 492.911 9.745C492.65 10.3843 492.514 11.124 492.505 11.964C492.5 12.804 492.629 13.5437 492.89 14.183C493.156 14.8223 493.553 15.324 494.08 15.688C494.612 16.0473 495.272 16.227 496.061 16.227C496.966 16.227 497.697 15.9937 498.252 15.527C498.807 15.0557 499.192 14.4233 499.407 13.63L500.457 13.903C500.182 14.911 499.673 15.716 498.931 16.318C498.189 16.9153 497.232 17.214 496.061 17.214ZM505.5 17.214C504.763 17.214 504.124 17.0507 503.582 16.724C503.046 16.3973 502.628 15.9377 502.329 15.345C502.031 14.7523 501.881 14.057 501.881 13.259C501.881 12.433 502.028 11.719 502.322 11.117C502.616 10.515 503.029 10.0507 503.561 9.724C504.098 9.39733 504.73 9.234 505.458 9.234C506.205 9.234 506.842 9.40667 507.369 9.752C507.897 10.0927 508.296 10.5827 508.566 11.222C508.837 11.8613 508.961 12.6243 508.937 13.511H507.887V13.147C507.869 12.167 507.656 11.4273 507.25 10.928C506.849 10.4287 506.261 10.179 505.486 10.179C504.674 10.179 504.051 10.4427 503.617 10.97C503.188 11.4973 502.973 12.2487 502.973 13.224C502.973 14.176 503.188 14.9157 503.617 15.443C504.051 15.9657 504.665 16.227 505.458 16.227C506 16.227 506.471 16.1033 506.872 15.856C507.278 15.604 507.598 15.2423 507.831 14.771L508.79 15.142C508.492 15.8 508.051 16.311 507.467 16.675C506.889 17.0343 506.233 17.214 505.5 17.214ZM502.609 13.511V12.65H508.384V13.511H502.609ZM514.186 17.214C513.491 17.214 512.903 17.039 512.422 16.689C511.941 16.3343 511.577 15.856 511.33 15.254C511.083 14.6473 510.959 13.9683 510.959 13.217C510.959 12.4517 511.083 11.7703 511.33 11.173C511.582 10.571 511.951 10.0973 512.436 9.752C512.921 9.40667 513.519 9.234 514.228 9.234C514.919 9.234 515.511 9.409 516.006 9.759C516.501 10.109 516.879 10.585 517.14 11.187C517.406 11.789 517.539 12.4657 517.539 13.217C517.539 13.973 517.406 14.652 517.14 15.254C516.874 15.856 516.491 16.3343 515.992 16.689C515.493 17.039 514.891 17.214 514.186 17.214ZM510.784 20.364V9.444H511.708V15.135H511.82V20.364H510.784ZM514.081 16.255C514.608 16.255 515.047 16.122 515.397 15.856C515.747 15.59 516.008 15.2283 516.181 14.771C516.358 14.309 516.447 13.791 516.447 13.217C516.447 12.6477 516.361 12.1343 516.188 11.677C516.015 11.2197 515.752 10.858 515.397 10.592C515.047 10.326 514.601 10.193 514.06 10.193C513.533 10.193 513.094 10.3213 512.744 10.578C512.399 10.8347 512.14 11.1917 511.967 11.649C511.794 12.1017 511.708 12.6243 511.708 13.217C511.708 13.8003 511.794 14.323 511.967 14.785C512.14 15.2423 512.401 15.6017 512.751 15.863C513.101 16.1243 513.544 16.255 514.081 16.255ZM519.369 17.004V9.444H522.484C522.643 9.444 522.834 9.45333 523.058 9.472C523.287 9.49067 523.499 9.52567 523.695 9.577C524.12 9.689 524.46 9.91767 524.717 10.263C524.978 10.6083 525.109 11.0237 525.109 11.509C525.109 11.7797 525.067 12.0223 524.983 12.237C524.904 12.447 524.789 12.629 524.64 12.783C524.57 12.8623 524.493 12.9323 524.409 12.993C524.325 13.049 524.243 13.0957 524.164 13.133C524.313 13.161 524.474 13.2263 524.647 13.329C524.918 13.4877 525.123 13.7023 525.263 13.973C525.403 14.239 525.473 14.5633 525.473 14.946C525.473 15.464 525.349 15.8863 525.102 16.213C524.855 16.5397 524.523 16.7637 524.108 16.885C523.921 16.9363 523.718 16.969 523.499 16.983C523.284 16.997 523.081 17.004 522.89 17.004H519.369ZM520.405 16.129H522.841C522.939 16.129 523.063 16.122 523.212 16.108C523.361 16.0893 523.494 16.066 523.611 16.038C523.886 15.968 524.087 15.828 524.213 15.618C524.344 15.4033 524.409 15.17 524.409 14.918C524.409 14.5867 524.311 14.316 524.115 14.106C523.924 13.8913 523.667 13.7607 523.345 13.714C523.238 13.6907 523.126 13.6767 523.009 13.672C522.892 13.6673 522.787 13.665 522.694 13.665H520.405V16.129ZM520.405 12.783H522.519C522.64 12.783 522.776 12.776 522.925 12.762C523.079 12.7433 523.212 12.713 523.324 12.671C523.567 12.587 523.744 12.4423 523.856 12.237C523.973 12.0317 524.031 11.8077 524.031 11.565C524.031 11.299 523.968 11.0657 523.842 10.865C523.721 10.6643 523.536 10.5243 523.289 10.445C523.121 10.3843 522.939 10.3493 522.743 10.34C522.552 10.3307 522.43 10.326 522.379 10.326H520.405V12.783ZM533.174 9.444V17.004H532.173V11.117L528.029 17.004H527.161V9.444H528.162V15.282L532.313 9.444H533.174ZM538.575 17.214C537.814 17.214 537.17 17.0437 536.643 16.703C536.116 16.3623 535.714 15.8933 535.439 15.296C535.168 14.694 535.028 14.0033 535.019 13.224C535.028 12.4307 535.173 11.7353 535.453 11.138C535.733 10.536 536.137 10.0693 536.664 9.738C537.191 9.402 537.831 9.234 538.582 9.234C539.347 9.234 540.012 9.42067 540.577 9.794C541.146 10.1673 541.536 10.6783 541.746 11.327L540.738 11.649C540.561 11.1963 540.278 10.8463 539.891 10.599C539.508 10.347 539.07 10.221 538.575 10.221C538.02 10.221 537.56 10.3493 537.196 10.606C536.832 10.858 536.561 11.2103 536.384 11.663C536.207 12.1157 536.116 12.636 536.111 13.224C536.12 14.1293 536.33 14.8573 536.741 15.408C537.152 15.954 537.763 16.227 538.575 16.227C539.088 16.227 539.525 16.1103 539.884 15.877C540.248 15.639 540.523 15.2937 540.71 14.841L541.746 15.149C541.466 15.821 541.055 16.3343 540.514 16.689C539.973 17.039 539.326 17.214 538.575 17.214Z" fill="black"/>
<path d="M566.661 17.004V7.911H563.14V6.924H571.211V7.911H567.69V17.004H566.661ZM573.812 17.214C573.243 17.214 572.764 17.1113 572.377 16.906C571.994 16.7007 571.707 16.4277 571.516 16.087C571.325 15.7463 571.229 15.3753 571.229 14.974C571.229 14.5633 571.311 14.2133 571.474 13.924C571.642 13.63 571.868 13.3897 572.153 13.203C572.442 13.0163 572.776 12.874 573.154 12.776C573.537 12.6827 573.959 12.601 574.421 12.531C574.888 12.4563 575.343 12.3933 575.786 12.342C576.234 12.286 576.626 12.2323 576.962 12.181L576.598 12.405C576.612 11.6583 576.467 11.1053 576.164 10.746C575.861 10.3867 575.333 10.207 574.582 10.207C574.064 10.207 573.625 10.3237 573.266 10.557C572.911 10.7903 572.662 11.159 572.517 11.663L571.516 11.369C571.689 10.6923 572.036 10.1673 572.559 9.794C573.082 9.42067 573.761 9.234 574.596 9.234C575.287 9.234 575.872 9.36467 576.353 9.626C576.838 9.88267 577.181 10.256 577.382 10.746C577.475 10.9653 577.536 11.2103 577.564 11.481C577.592 11.7517 577.606 12.027 577.606 12.307V17.004H576.689V15.107L576.955 15.219C576.698 15.8677 576.299 16.3623 575.758 16.703C575.217 17.0437 574.568 17.214 573.812 17.214ZM573.931 16.325C574.412 16.325 574.832 16.2387 575.191 16.066C575.55 15.8933 575.84 15.6577 576.059 15.359C576.278 15.0557 576.421 14.715 576.486 14.337C576.542 14.0943 576.572 13.8283 576.577 13.539C576.582 13.245 576.584 13.0257 576.584 12.881L576.976 13.084C576.626 13.1307 576.246 13.1773 575.835 13.224C575.429 13.2707 575.028 13.3243 574.631 13.385C574.239 13.4457 573.884 13.518 573.567 13.602C573.352 13.6627 573.145 13.749 572.944 13.861C572.743 13.9683 572.578 14.113 572.447 14.295C572.321 14.477 572.258 14.7033 572.258 14.974C572.258 15.1933 572.312 15.4057 572.419 15.611C572.531 15.8163 572.708 15.9867 572.951 16.122C573.198 16.2573 573.525 16.325 573.931 16.325ZM583.123 17.214C582.428 17.214 581.84 17.039 581.359 16.689C580.879 16.3343 580.515 15.856 580.267 15.254C580.02 14.6473 579.896 13.9683 579.896 13.217C579.896 12.4517 580.02 11.7703 580.267 11.173C580.519 10.571 580.888 10.0973 581.373 9.752C581.859 9.40667 582.456 9.234 583.165 9.234C583.856 9.234 584.449 9.409 584.943 9.759C585.438 10.109 585.816 10.585 586.077 11.187C586.343 11.789 586.476 12.4657 586.476 13.217C586.476 13.973 586.343 14.652 586.077 15.254C585.811 15.856 585.429 16.3343 584.929 16.689C584.43 17.039 583.828 17.214 583.123 17.214ZM579.721 20.364V9.444H580.645V15.135H580.757V20.364H579.721ZM583.018 16.255C583.546 16.255 583.984 16.122 584.334 15.856C584.684 15.59 584.946 15.2283 585.118 14.771C585.296 14.309 585.384 13.791 585.384 13.217C585.384 12.6477 585.298 12.1343 585.125 11.677C584.953 11.2197 584.689 10.858 584.334 10.592C583.984 10.326 583.539 10.193 582.997 10.193C582.47 10.193 582.031 10.3213 581.681 10.578C581.336 10.8347 581.077 11.1917 580.904 11.649C580.732 12.1017 580.645 12.6243 580.645 13.217C580.645 13.8003 580.732 14.323 580.904 14.785C581.077 15.2423 581.338 15.6017 581.688 15.863C582.038 16.1243 582.482 16.255 583.018 16.255ZM594.32 9.444V17.004H593.319V11.117L589.175 17.004H588.307V9.444H589.308V15.282L593.459 9.444H594.32ZM600.168 20.154V17.151C599.431 17.2677 598.759 17.1883 598.152 16.913C597.546 16.633 597.063 16.1803 596.703 15.555C596.344 14.9297 596.164 14.155 596.164 13.231C596.164 12.307 596.344 11.5323 596.703 10.907C597.063 10.277 597.546 9.822 598.152 9.542C598.759 9.262 599.431 9.18033 600.168 9.297V6.98H601.12V9.297C601.858 9.18033 602.53 9.262 603.136 9.542C603.743 9.822 604.226 10.277 604.585 10.907C604.945 11.5323 605.124 12.307 605.124 13.231C605.124 14.155 604.945 14.9297 604.585 15.555C604.226 16.1803 603.743 16.633 603.136 16.913C602.53 17.1883 601.858 17.2677 601.12 17.151V20.154H600.168ZM600.168 16.192V10.263C599.79 10.1977 599.426 10.2093 599.076 10.298C598.726 10.382 598.411 10.5477 598.131 10.795C597.851 11.0377 597.63 11.362 597.466 11.768C597.308 12.1693 597.228 12.657 597.228 13.231C597.228 13.805 597.31 14.295 597.473 14.701C597.637 15.1023 597.858 15.4243 598.138 15.667C598.418 15.9097 598.733 16.073 599.083 16.157C599.433 16.241 599.795 16.2527 600.168 16.192ZM601.12 16.192C601.494 16.2527 601.855 16.241 602.205 16.157C602.555 16.073 602.87 15.912 603.15 15.674C603.43 15.4313 603.652 15.1093 603.815 14.708C603.979 14.302 604.06 13.8097 604.06 13.231C604.06 12.6523 603.979 12.1623 603.815 11.761C603.657 11.355 603.437 11.0307 603.157 10.788C602.877 10.5453 602.562 10.382 602.212 10.298C601.862 10.2093 601.498 10.1977 601.12 10.263V16.192ZM606.967 17.004L606.953 9.444H607.989V12.293H609.305C609.525 12.293 609.739 12.2977 609.949 12.307C610.159 12.3163 610.348 12.335 610.516 12.363C610.89 12.4377 611.221 12.5637 611.51 12.741C611.8 12.9183 612.028 13.1633 612.196 13.476C612.364 13.784 612.448 14.1737 612.448 14.645C612.448 15.2937 612.28 15.8047 611.944 16.178C611.608 16.5513 611.186 16.794 610.677 16.906C610.486 16.948 610.278 16.976 610.054 16.99C609.83 16.9993 609.611 17.004 609.396 17.004H606.967ZM607.989 16.122H609.354C609.508 16.122 609.683 16.1173 609.879 16.108C610.075 16.0987 610.248 16.073 610.397 16.031C610.649 15.961 610.876 15.821 611.076 15.611C611.282 15.3963 611.384 15.0743 611.384 14.645C611.384 14.2203 611.286 13.9007 611.09 13.686C610.894 13.4667 610.633 13.322 610.306 13.252C610.157 13.2193 609.998 13.1983 609.83 13.189C609.667 13.1797 609.508 13.175 609.354 13.175H607.989V16.122ZM613.351 17.004V9.444H614.38V17.004H613.351Z" fill="black"/>
<path d="M636.98 17.004V6.924H640.872C640.97 6.924 641.08 6.92867 641.201 6.938C641.327 6.94267 641.453 6.95667 641.579 6.98C642.106 7.05933 642.552 7.24367 642.916 7.533C643.285 7.81767 643.562 8.177 643.749 8.611C643.94 9.045 644.036 9.52567 644.036 10.053C644.036 10.5757 643.94 11.054 643.749 11.488C643.558 11.922 643.278 12.2837 642.909 12.573C642.545 12.8577 642.102 13.0397 641.579 13.119C641.453 13.1377 641.327 13.1517 641.201 13.161C641.08 13.1703 640.97 13.175 640.872 13.175H638.009V17.004H636.98ZM638.009 12.195H640.844C640.928 12.195 641.026 12.1903 641.138 12.181C641.25 12.1717 641.36 12.1553 641.467 12.132C641.812 12.0573 642.095 11.915 642.314 11.705C642.538 11.495 642.704 11.2453 642.811 10.956C642.923 10.6667 642.979 10.3657 642.979 10.053C642.979 9.74033 642.923 9.43933 642.811 9.15C642.704 8.856 642.538 8.604 642.314 8.394C642.095 8.184 641.812 8.04167 641.467 7.967C641.36 7.94367 641.25 7.92967 641.138 7.925C641.026 7.91567 640.928 7.911 640.844 7.911H638.009V12.195ZM647.892 17.214C647.323 17.214 646.845 17.1113 646.457 16.906C646.075 16.7007 645.788 16.4277 645.596 16.087C645.405 15.7463 645.309 15.3753 645.309 14.974C645.309 14.5633 645.391 14.2133 645.554 13.924C645.722 13.63 645.949 13.3897 646.233 13.203C646.523 13.0163 646.856 12.874 647.234 12.776C647.617 12.6827 648.039 12.601 648.501 12.531C648.968 12.4563 649.423 12.3933 649.866 12.342C650.314 12.286 650.706 12.2323 651.042 12.181L650.678 12.405C650.692 11.6583 650.548 11.1053 650.244 10.746C649.941 10.3867 649.414 10.207 648.662 10.207C648.144 10.207 647.706 10.3237 647.346 10.557C646.992 10.7903 646.742 11.159 646.597 11.663L645.596 11.369C645.769 10.6923 646.117 10.1673 646.639 9.794C647.162 9.42067 647.841 9.234 648.676 9.234C649.367 9.234 649.953 9.36467 650.433 9.626C650.919 9.88267 651.262 10.256 651.462 10.746C651.556 10.9653 651.616 11.2103 651.644 11.481C651.672 11.7517 651.686 12.027 651.686 12.307V17.004H650.769V15.107L651.035 15.219C650.779 15.8677 650.38 16.3623 649.838 16.703C649.297 17.0437 648.648 17.214 647.892 17.214ZM648.011 16.325C648.492 16.325 648.912 16.2387 649.271 16.066C649.631 15.8933 649.92 15.6577 650.139 15.359C650.359 15.0557 650.501 14.715 650.566 14.337C650.622 14.0943 650.653 13.8283 650.657 13.539C650.662 13.245 650.664 13.0257 650.664 12.881L651.056 13.084C650.706 13.1307 650.326 13.1773 649.915 13.224C649.509 13.2707 649.108 13.3243 648.711 13.385C648.319 13.4457 647.965 13.518 647.647 13.602C647.433 13.6627 647.225 13.749 647.024 13.861C646.824 13.9683 646.658 14.113 646.527 14.295C646.401 14.477 646.338 14.7033 646.338 14.974C646.338 15.1933 646.392 15.4057 646.499 15.611C646.611 15.8163 646.789 15.9867 647.031 16.122C647.279 16.2573 647.605 16.325 648.011 16.325ZM656.945 17.214C656.184 17.214 655.54 17.0437 655.013 16.703C654.485 16.3623 654.084 15.8933 653.809 15.296C653.538 14.694 653.398 14.0033 653.389 13.224C653.398 12.4307 653.543 11.7353 653.823 11.138C654.103 10.536 654.506 10.0693 655.034 9.738C655.561 9.402 656.2 9.234 656.952 9.234C657.717 9.234 658.382 9.42067 658.947 9.794C659.516 10.1673 659.906 10.6783 660.116 11.327L659.108 11.649C658.93 11.1963 658.648 10.8463 658.261 10.599C657.878 10.347 657.439 10.221 656.945 10.221C656.389 10.221 655.93 10.3493 655.566 10.606C655.202 10.858 654.931 11.2103 654.754 11.663C654.576 12.1157 654.485 12.636 654.481 13.224C654.49 14.1293 654.7 14.8573 655.111 15.408C655.521 15.954 656.133 16.227 656.945 16.227C657.458 16.227 657.894 16.1103 658.254 15.877C658.618 15.639 658.893 15.2937 659.08 14.841L660.116 15.149C659.836 15.821 659.425 16.3343 658.884 16.689C658.342 17.039 657.696 17.214 656.945 17.214ZM661.853 17.004V9.444H667.866V17.004H666.837V10.431H662.882V17.004H661.853ZM673.288 17.214C672.537 17.214 671.895 17.0437 671.363 16.703C670.831 16.3623 670.423 15.891 670.138 15.289C669.854 14.687 669.711 13.9963 669.711 13.217C669.711 12.4237 669.856 11.7283 670.145 11.131C670.435 10.5337 670.845 10.0693 671.377 9.738C671.914 9.402 672.551 9.234 673.288 9.234C674.044 9.234 674.688 9.40433 675.22 9.745C675.757 10.081 676.165 10.55 676.445 11.152C676.73 11.7493 676.872 12.4377 676.872 13.217C676.872 14.0103 676.73 14.708 676.445 15.31C676.161 15.9073 675.75 16.374 675.213 16.71C674.677 17.046 674.035 17.214 673.288 17.214ZM673.288 16.227C674.128 16.227 674.754 15.9493 675.164 15.394C675.575 14.834 675.78 14.1083 675.78 13.217C675.78 12.3023 675.573 11.5743 675.157 11.033C674.747 10.4917 674.124 10.221 673.288 10.221C672.724 10.221 672.257 10.3493 671.888 10.606C671.524 10.858 671.251 11.2103 671.069 11.663C670.892 12.111 670.803 12.629 670.803 13.217C670.803 14.127 671.013 14.8573 671.433 15.408C671.853 15.954 672.472 16.227 673.288 16.227ZM678.016 17.004V16.101C678.296 16.1523 678.509 16.1407 678.653 16.066C678.803 15.9867 678.912 15.856 678.982 15.674C679.052 15.4873 679.111 15.2563 679.157 14.981C679.232 14.5237 679.3 14.0197 679.36 13.469C679.421 12.9183 679.475 12.3117 679.521 11.649C679.573 10.9817 679.624 10.2467 679.675 9.444H684.813V17.004H683.791V10.431H680.627C680.595 10.9257 680.557 11.418 680.515 11.908C680.473 12.398 680.429 12.8693 680.382 13.322C680.34 13.77 680.294 14.183 680.242 14.561C680.191 14.939 680.137 15.2657 680.081 15.541C679.997 15.9563 679.885 16.2877 679.745 16.535C679.61 16.7823 679.407 16.9457 679.136 17.025C678.866 17.1043 678.492 17.0973 678.016 17.004ZM690.226 17.214C689.475 17.214 688.833 17.0437 688.301 16.703C687.769 16.3623 687.361 15.891 687.076 15.289C686.791 14.687 686.649 13.9963 686.649 13.217C686.649 12.4237 686.794 11.7283 687.083 11.131C687.372 10.5337 687.783 10.0693 688.315 9.738C688.852 9.402 689.489 9.234 690.226 9.234C690.982 9.234 691.626 9.40433 692.158 9.745C692.695 10.081 693.103 10.55 693.383 11.152C693.668 11.7493 693.81 12.4377 693.81 13.217C693.81 14.0103 693.668 14.708 693.383 15.31C693.098 15.9073 692.688 16.374 692.151 16.71C691.614 17.046 690.973 17.214 690.226 17.214ZM690.226 16.227C691.066 16.227 691.691 15.9493 692.102 15.394C692.513 14.834 692.718 14.1083 692.718 13.217C692.718 12.3023 692.51 11.5743 692.095 11.033C691.684 10.4917 691.061 10.221 690.226 10.221C689.661 10.221 689.195 10.3493 688.826 10.606C688.462 10.858 688.189 11.2103 688.007 11.663C687.83 12.111 687.741 12.629 687.741 13.217C687.741 14.127 687.951 14.8573 688.371 15.408C688.791 15.954 689.409 16.227 690.226 16.227ZM694.677 17.004L697.869 13.224L694.81 9.444H695.972L698.954 13.175V9.444H699.906V13.175L702.888 9.444H704.043L700.984 13.224L704.176 17.004H702.979L699.906 13.273V17.004H698.954V13.273L695.874 17.004H694.677ZM708.518 17.214C707.781 17.214 707.142 17.0507 706.6 16.724C706.064 16.3973 705.646 15.9377 705.347 15.345C705.049 14.7523 704.899 14.057 704.899 13.259C704.899 12.433 705.046 11.719 705.34 11.117C705.634 10.515 706.047 10.0507 706.579 9.724C707.116 9.39733 707.748 9.234 708.476 9.234C709.223 9.234 709.86 9.40667 710.387 9.752C710.915 10.0927 711.314 10.5827 711.584 11.222C711.855 11.8613 711.979 12.6243 711.955 13.511H710.905V13.147C710.887 12.167 710.674 11.4273 710.268 10.928C709.867 10.4287 709.279 10.179 708.504 10.179C707.692 10.179 707.069 10.4427 706.635 10.97C706.206 11.4973 705.991 12.2487 705.991 13.224C705.991 14.176 706.206 14.9157 706.635 15.443C707.069 15.9657 707.683 16.227 708.476 16.227C709.018 16.227 709.489 16.1033 709.89 15.856C710.296 15.604 710.616 15.2423 710.849 14.771L711.808 15.142C711.51 15.8 711.069 16.311 710.485 16.675C709.907 17.0343 709.251 17.214 708.518 17.214ZM705.627 13.511V12.65H711.402V13.511H705.627ZM713.802 17.004V9.444H714.831V12.727H719.094V9.444H720.123V17.004H719.094V13.714H714.831V17.004H713.802ZM728.386 9.444V17.004H727.385V11.117L723.241 17.004H722.373V9.444H723.374V15.282L727.525 9.444H728.386ZM733.85 17.214C733.113 17.214 732.473 17.0507 731.932 16.724C731.395 16.3973 730.978 15.9377 730.679 15.345C730.38 14.7523 730.231 14.057 730.231 13.259C730.231 12.433 730.378 11.719 730.672 11.117C730.966 10.515 731.379 10.0507 731.911 9.724C732.448 9.39733 733.08 9.234 733.808 9.234C734.555 9.234 735.192 9.40667 735.719 9.752C736.246 10.0927 736.645 10.5827 736.916 11.222C737.187 11.8613 737.31 12.6243 737.287 13.511H736.237V13.147C736.218 12.167 736.006 11.4273 735.6 10.928C735.199 10.4287 734.611 10.179 733.836 10.179C733.024 10.179 732.401 10.4427 731.967 10.97C731.538 11.4973 731.323 12.2487 731.323 13.224C731.323 14.176 731.538 14.9157 731.967 15.443C732.401 15.9657 733.015 16.227 733.808 16.227C734.349 16.227 734.821 16.1033 735.222 15.856C735.628 15.604 735.948 15.2423 736.181 14.771L737.14 15.142C736.841 15.8 736.4 16.311 735.817 16.675C735.238 17.0343 734.583 17.214 733.85 17.214ZM730.959 13.511V12.65H736.734V13.511H730.959Z" fill="black"/>
</svg>
