<svg width="119" height="16" viewBox="0 0 119 16" fill="none" xmlns="http://www.w3.org/2000/svg">
<path d="M0.449097 15.4184V0.488708H6.18099C7.34527 0.488708 8.28222 0.636794 8.99181 0.939695C9.69452 1.2426 10.2457 1.70704 10.6452 2.33304C11.0448 2.95903 11.2446 3.61868 11.2446 4.30526C11.2446 4.94472 11.0655 5.54379 10.7141 6.1092C10.3628 6.67462 9.82542 7.1256 9.10893 7.47562C10.0321 7.73814 10.7417 8.18912 11.2377 8.82858C11.7338 9.46804 11.9818 10.2219 11.9818 11.0902C11.9818 11.7903 11.8302 12.4365 11.5271 13.0423C11.2239 13.6481 10.8519 14.1058 10.4041 14.4289C9.95631 14.752 9.40517 15.001 8.73002 15.1693C8.06176 15.3376 7.23505 15.4184 6.26366 15.4184H0.449097ZM2.46766 6.76212H5.76763C6.66324 6.76212 7.30394 6.70154 7.69663 6.58711C8.21333 6.43903 8.59913 6.18998 8.86092 5.84669C9.12271 5.5034 9.25361 5.06588 9.25361 4.54085C9.25361 4.04275 9.1296 3.61195 8.88847 3.23501C8.64735 2.85807 8.296 2.60228 7.84819 2.46093C7.3935 2.31958 6.6219 2.25226 5.5265 2.25226H2.47455V6.76212H2.46766ZM2.46766 13.6548H6.27055C6.92503 13.6548 7.37972 13.6279 7.6484 13.5808C8.11687 13.5 8.50268 13.3654 8.81269 13.1769C9.12271 12.9884 9.38451 12.7124 9.5843 12.349C9.78408 11.9855 9.88742 11.5682 9.88742 11.0902C9.88742 10.5316 9.74275 10.0469 9.44651 9.63632C9.15716 9.22572 8.75069 8.93628 8.23399 8.768C7.7173 8.59972 6.97326 8.51895 6.00187 8.51895H2.46766V13.6548Z" fill="#263238"/>
<path d="M15.02 15.4184V0.488708H26.0635V2.25226H17.0454V6.8227H25.4986V8.5728H17.0454V13.6548H26.4217V15.4184H15.02Z" fill="#263238"/>
<path d="M30.5415 0.488708H40.1038V15.4116H38.0853V2.25226H32.56V9.93922C32.56 11.5008 32.4843 12.6451 32.3327 13.3721C32.1811 14.0991 31.8711 14.6645 31.3889 15.0683C30.9066 15.4722 30.3004 15.6741 29.5632 15.6741C29.1154 15.6741 28.5849 15.5934 27.958 15.4318L28.3025 13.6817C28.6332 13.8163 28.9225 13.8837 29.1567 13.8837C29.6183 13.8837 29.9559 13.7154 30.1901 13.3788C30.4175 13.0423 30.5346 12.248 30.5346 11.0027V0.488708H30.5415Z" fill="#263238"/>
<path d="M43.0318 8.14875C43.0318 5.6717 43.7138 3.73313 45.071 2.33305C46.4351 0.932979 48.1919 0.232941 50.3413 0.232941C51.7536 0.232941 53.0213 0.562766 54.158 1.22242C55.2878 1.88207 56.1559 2.7975 56.7484 3.97545C57.3409 5.1534 57.6371 6.48616 57.6371 7.98047C57.6371 9.49498 57.3271 10.8479 56.7001 12.0393C56.0732 13.2308 55.1914 14.1395 54.0409 14.752C52.8973 15.3645 51.6572 15.6742 50.3344 15.6742C48.8946 15.6742 47.6132 15.3376 46.4764 14.6578C45.3466 13.9779 44.4854 13.0557 43.8999 11.8778C43.3212 10.6999 43.0318 9.46132 43.0318 8.14875ZM45.1124 8.17568C45.1124 9.97289 45.6084 11.3932 46.6005 12.423C47.5925 13.4596 48.8326 13.9779 50.3276 13.9779C51.8501 13.9779 53.1039 13.4529 54.0822 12.4096C55.0674 11.3662 55.5565 9.87865 55.5565 7.96028C55.5565 6.74868 55.343 5.68516 54.9227 4.77645C54.5025 3.86775 53.8893 3.16771 53.0764 2.66961C52.2703 2.17151 51.361 1.92245 50.3482 1.92245C48.9153 1.92245 47.689 2.40036 46.6556 3.36292C45.6291 4.32547 45.1124 5.93421 45.1124 8.17568Z" fill="#263238"/>
<path d="M59.7728 10.6191L61.6811 10.4575C61.7707 11.2047 61.9842 11.8172 62.3149 12.2951C62.6456 12.773 63.1554 13.1634 63.8512 13.4529C64.547 13.7491 65.3255 13.8971 66.1936 13.8971C66.9652 13.8971 67.6472 13.7827 68.2328 13.5606C68.8253 13.3385 69.2593 13.0288 69.5487 12.6384C69.838 12.248 69.9827 11.824 69.9827 11.3595C69.9827 10.8883 69.8449 10.4845 69.5693 10.1344C69.2938 9.78442 68.8322 9.48825 68.1915 9.25266C67.7781 9.09784 66.8756 8.85552 65.4702 8.52569C64.0648 8.19587 63.0865 7.88624 62.5216 7.5968C61.7913 7.22659 61.2471 6.76214 60.8888 6.21019C60.5306 5.65823 60.3515 5.03897 60.3515 4.35239C60.3515 3.59851 60.5719 2.89174 61.006 2.23882C61.4469 1.5859 62.0807 1.08779 62.9212 0.744507C63.7617 0.40795 64.6986 0.232941 65.7251 0.232941C66.855 0.232941 67.8539 0.40795 68.722 0.7647C69.59 1.12145 70.2514 1.64648 70.7198 2.33978C71.1883 3.03309 71.4363 3.8139 71.4708 4.68895L69.5349 4.8303C69.4316 3.88794 69.0802 3.17444 68.4739 2.6898C67.8746 2.20516 66.9859 1.96957 65.8147 1.96957C64.5953 1.96957 63.6997 2.1917 63.1416 2.62922C62.5836 3.06675 62.3011 3.59178 62.3011 4.21104C62.3011 4.74953 62.5009 5.18705 62.8936 5.53707C63.2794 5.88036 64.299 6.23711 65.9387 6.60059C67.5783 6.96407 68.7082 7.28044 69.3213 7.54968C70.21 7.95355 70.8645 8.45838 71.2917 9.07092C71.7119 9.68345 71.9255 10.3902 71.9255 11.1912C71.9255 11.9855 71.6912 12.7327 71.2297 13.4394C70.7612 14.1395 70.0929 14.6914 69.2249 15.0818C68.3499 15.4722 67.3717 15.6674 66.2831 15.6674C64.8984 15.6674 63.741 15.4722 62.8109 15.0751C61.874 14.6847 61.1437 14.0923 60.6133 13.2981C60.0759 12.5173 59.8003 11.622 59.7728 10.6191Z" fill="#263238"/>
<path d="M74.9705 15.4184V0.488708H76.9891V6.62077H84.9324V0.488708H86.951V15.4116H84.9324V8.38433H76.9891V15.4184H74.9705Z" fill="#263238"/>
<path d="M89.9134 8.14875C89.9134 5.6717 90.5954 3.73313 91.9526 2.33305C93.3167 0.932979 95.0735 0.232941 97.2229 0.232941C98.6352 0.232941 99.9029 0.562766 101.04 1.22242C102.169 1.88207 103.037 2.7975 103.63 3.97545C104.222 5.1534 104.519 6.48616 104.519 7.98047C104.519 9.49498 104.209 10.8479 103.582 12.0393C102.955 13.2308 102.073 14.1395 100.922 14.752C99.7789 15.3645 98.5388 15.6742 97.216 15.6742C95.7762 15.6742 94.4948 15.3376 93.358 14.6578C92.2282 13.9779 91.367 13.0557 90.7814 11.8778C90.2096 10.6999 89.9134 9.46132 89.9134 8.14875ZM92.0008 8.17568C92.0008 9.97289 92.4969 11.3932 93.4889 12.423C94.481 13.4596 95.7211 13.9779 97.216 13.9779C98.7386 13.9779 99.9924 13.4529 100.971 12.4096C101.956 11.3662 102.445 9.87865 102.445 7.96028C102.445 6.74868 102.231 5.68516 101.811 4.77645C101.391 3.86775 100.778 3.16771 99.9649 2.66961C99.1588 2.17151 98.2494 1.92245 97.2367 1.92245C95.8037 1.92245 94.5774 2.40036 93.5441 3.36292C92.5175 4.32547 92.0008 5.93421 92.0008 8.17568Z" fill="#263238"/>
<path d="M107.343 15.4184V0.488708H113.103C114.116 0.488708 114.894 0.535827 115.424 0.630063C116.175 0.751223 116.802 0.986812 117.312 1.3301C117.822 1.67339 118.228 2.1513 118.538 2.77056C118.848 3.38983 119 4.06967 119 4.80336C119 6.07555 118.587 7.1458 117.76 8.02758C116.933 8.90935 115.438 9.34688 113.282 9.34688H109.362V15.4116H107.343V15.4184ZM109.362 7.59005H113.309C114.618 7.59005 115.542 7.35446 116.093 6.87655C116.644 6.39864 116.913 5.73226 116.913 4.87068C116.913 4.24468 116.754 3.71292 116.43 3.26867C116.107 2.82441 115.679 2.52824 115.156 2.38689C114.818 2.29938 114.184 2.25226 113.268 2.25226H109.362V7.59005Z" fill="#263238"/>
</svg>
